<?xml version="1.0" encoding="UTF-8" standalone="no"?>
<!DOCTYPE svg PUBLIC "-//W3C//DTD SVG 1.1//EN" "http://www.w3.org/Graphics/SVG/1.1/DTD/svg11.dtd">
<svg width="100%" height="100%" viewBox="0 0 1063 1063" version="1.1" xmlns="http://www.w3.org/2000/svg" xmlns:xlink="http://www.w3.org/1999/xlink" xml:space="preserve" xmlns:serif="http://www.serif.com/" style="fill-rule:evenodd;clip-rule:evenodd;stroke-linejoin:round;stroke-miterlimit:2;">
    <g id="goldfish_logo" transform="matrix(1.058824,0,0,1.058824,1188.050023,0)">
        <rect x="-1122.047" y="0" width="1003.937" height="1003.937" style="fill:none;"/>
        <g id="pixil-frame-0--2-.png" serif:id="pixil-frame-0 (2).png" transform="matrix(-3.885892,0,0,3.885892,-219.093901,268.978347)">
            <path d="M203.598,44.535L202.535,45.598C190.794,46.147 189.568,44.963 189.175,47.449C188.961,48.799 189.134,69.581 189.15,71.506C189.168,73.703 189.306,74.209 191.51,74.257C202.168,74.489 202.985,73.545 203.598,75.465C203.978,76.654 203.759,111.38 203.74,114.503C203.729,116.224 204.004,116.578 202.438,117.289C202.201,117.397 199.735,117.401 199.5,117.402C190.635,117.416 190.636,117.341 190.543,117.322C188.84,116.964 189.15,115.525 189.149,107.5C189.149,104.269 189.718,102.979 186.496,102.966C178.558,102.933 175.72,103.186 175.034,102.5C174.941,102.406 175.063,98.424 175.034,91.504C175.027,89.743 175.16,89.348 173.45,88.876C173.263,88.824 162.784,88.874 162.455,88.832C160.131,88.536 160.615,87.24 160.598,78.5C160.592,75.29 160.709,74.273 157.502,74.261C147.073,74.219 147.032,74.382 146.664,74.691C145.806,75.414 146.213,75.653 146.067,86.487C146.053,87.567 146.243,87.684 145.448,88.437C144.735,89.111 144.572,88.772 134.505,88.851C133.342,88.86 133.211,88.596 132.404,89.418C131.715,90.12 132.107,97.951 132.012,100.494C131.952,102.114 132.175,102.542 130.612,102.909C130.376,102.965 127.749,102.966 127.5,102.966C103.843,102.972 103.705,102.856 103.035,103.5C102.819,103.707 103.081,104.097 103.082,104.396C103.082,105.282 103.084,114.938 103.028,115.469C103.007,115.664 102.852,117.135 101.477,117.361C101.074,117.427 61.926,117.427 61.523,117.361C59.539,117.035 60.091,115.195 60.034,105.505C60.024,103.863 60.205,103.439 58.604,103.082C58.396,103.035 55.748,103.035 55.5,103.035C32.435,103.031 32.239,103.146 31.595,102.417C30.815,101.534 31.23,101.363 31.168,91.504C31.156,89.681 31.235,89.286 29.461,88.868C29.261,88.821 18.853,88.897 18.433,88.803C17.395,88.571 17.168,87.768 17.13,87.633C16.864,86.689 17.272,76.595 16.827,75.357C16.296,73.885 14.375,74.302 5.502,74.26C4.866,74.257 2.897,74.543 2.651,72.482C2.467,70.951 2.616,50.42 2.629,48.502C2.65,45.582 3.595,45.74 6.5,45.74C14.897,45.739 16.378,45.997 16.827,44.643C17.158,43.645 16.754,33.569 17.13,32.367C17.599,30.865 18.924,31.15 26.5,31.149C29.792,31.149 31.136,31.789 31.168,28.496C31.264,18.442 30.953,18.31 31.595,17.583C32.159,16.944 32.333,17.036 55.5,17.034C58.644,17.034 59.917,17.654 59.965,14.512C60.123,4.04 59.502,3.633 60.757,2.882C61.284,2.567 61.336,2.597 97.5,2.598C101.295,2.599 102.933,1.698 102.966,5.493C103.051,15.377 102.593,15.591 103.483,16.517C104.007,17.062 105.131,16.965 115.5,16.965C130.705,16.965 130.85,16.869 131.499,17.501C132.057,18.046 131.944,20.038 131.944,26.5C131.944,29.752 131.245,31.11 134.505,31.149C144.71,31.27 144.821,31.019 145.448,31.563C146.491,32.468 145.939,40.431 146.076,43.538C146.183,45.97 147.67,45.739 149.499,45.74C158.535,45.744 159.473,45.86 160.11,45.142C161.103,44.023 160.328,34.207 160.678,32.543C161.036,30.84 162.475,31.15 170.5,31.149C173.669,31.149 174.916,31.687 174.965,28.51C175.123,18.329 174.823,18.17 175.483,17.483C176.099,16.842 179.246,17.064 186.496,17.034C188.257,17.027 188.652,17.16 189.124,15.45C189.168,15.293 189.143,6.53 189.149,5.495C189.16,3.805 189.138,2.662 191.505,2.601C191.619,2.598 201.226,2.596 201.493,2.606C204.057,2.707 203.74,4.797 203.74,6.5C203.742,42.507 203.74,42.506 203.598,44.535ZM62.5,60.034C52.161,59.678 46.702,60.573 45.996,59.206C45.729,58.689 45.764,58.648 45.764,36.5C45.764,34.184 45.315,31.527 47.447,31.176C48.696,30.971 69.581,31.135 71.506,31.15C74.663,31.175 74.283,32.338 74.286,35.5C74.303,58.88 74.213,58.89 74.038,59.214C73.5,60.215 72.018,60.034 62.5,60.034Z" style="fill:rgb(234,92,31);"/>
        </g>
    </g>
</svg>
